<svg width="16" height="16" viewBox="0 0 16 16" fill="none" xmlns="http://www.w3.org/2000/svg">
<path fill-rule="evenodd" clip-rule="evenodd" d="M15.1666 11.9993V4.66602C15.1666 3.56145 14.2712 2.66602 13.1666 2.66602L2.83325 2.66603C1.72868 2.66603 0.833252 3.56146 0.833252 4.66603V11.9993C0.833252 13.1039 1.72868 13.9993 2.83325 13.9993L13.1666 13.9993C14.2712 13.9993 15.1666 13.1039 15.1666 11.9993ZM13.8333 6.17232V11.9993C13.8333 12.3675 13.5348 12.666 13.1666 12.666L2.83325 12.666C2.46506 12.666 2.16659 12.3675 2.16659 11.9993L2.16659 6.17223L6.87536 9.3742C7.55408 9.83573 8.44588 9.83573 9.1246 9.3742L13.8333 6.17232ZM13.8257 4.56509C13.777 4.24479 13.5005 3.99935 13.1666 3.99935L2.83325 3.99936C2.4994 3.99936 2.22287 4.24476 2.17419 4.56501L7.62511 8.27164C7.85135 8.42548 8.14862 8.42548 8.37486 8.27164L13.8257 4.56509Z" fill="white"/>
</svg>
